<?xml version="1.0" encoding="utf-8"?>
<!-- Generator: Adobe Illustrator 16.0.0, SVG Export Plug-In . SVG Version: 6.00 Build 0)  -->
<!DOCTYPE svg PUBLIC "-//W3C//DTD SVG 1.1//EN" "http://www.w3.org/Graphics/SVG/1.1/DTD/svg11.dtd">
<svg version="1.1" xmlns="http://www.w3.org/2000/svg" xmlns:xlink="http://www.w3.org/1999/xlink" x="0px" y="0px" width="1920px"
	 height="1080px" viewBox="0 0 1920 1080" enable-background="new 0 0 1920 1080" xml:space="preserve">
<g id="Wave">
	<path fill="#D8ECDB" d="M3630.994,1043.813c-225.593,9.329-553.062-37.087-857.574-108.213
		c-285.649-66.714-666.109-72.597-853.42-70.802c-187.312-1.795-567.771,4.088-853.42,70.802
		c-301.584,70.441-625.668,116.639-851.02,108.457v-0.244c-2.186,0-4.369,0-6.554,0c-183.04,0-360.338,0-418.014,0
		c-2.185,0-4.368,0-6.554,0v0.244c-225.352,8.182-549.436-38.016-851.02-108.457c-285.648-66.714-666.108-72.597-853.42-70.802
		c-187.311-1.795-567.771,4.088-853.42,70.802c-304.513,71.126-631.981,117.542-857.574,108.213c-58.363,0-239.218,0-424.567,0V1153
		h2034.369h202.384h1603.248h431.121h1603.248h202.383h2034.369v-109.187C3870.212,1043.813,3689.357,1043.813,3630.994,1043.813z"
		/>
	<path opacity="0.2" fill="#D8ECDB" d="M3630.994,1043.813c-225.593,9.329-553.062-37.087-857.574-108.213
		c-285.649-66.714-649.109-119.895-836.42-118.099c-187.312-1.796-567.771,4.088-853.42,70.801
		c-301.584,70.441-642.668,163.937-868.02,155.755v-0.244c-2.186,0-4.369,0-6.554,0c-183.04,0-360.338,0-418.014,0
		c-2.185,0-4.368,0-6.554,0v0.244c-225.352,8.182-532.436-85.313-834.02-155.755c-285.648-66.713-666.108-72.597-853.42-70.801
		c-187.311-1.796-584.771,51.385-870.42,118.099c-304.513,71.126-631.981,117.542-857.574,108.213c-58.363,0-239.218,0-424.567,0
		V1153h2034.369h202.384h1603.248h431.121h1603.248h202.383h2034.369v-109.187
		C3870.212,1043.813,3689.357,1043.813,3630.994,1043.813z"/>
	<path fill="#D8ECDB" d="M-1710.993,32.198c225.592-11.339,553.061,45.079,857.573,131.534
		c285.648,81.091,666.108,88.243,853.42,86.06c187.311,2.183,567.771-4.968,853.42-86.06
		c304.513-86.455,631.981-142.873,857.574-131.534c58.363,0,239.218,0,424.566,0v-132.717H101.191h-202.383h-2034.369V32.198
		C-1950.214,32.198-1769.357,32.198-1710.993,32.198z"/>
	<path opacity="0.2" fill="#D8ECDB" d="M-1962.993,24.897c225.592-10.715,553.061,42.6,857.573,124.298
		c285.648,76.631,666.108,83.389,853.42,81.326c187.311,2.063,567.771-4.695,853.42-81.326
		c304.513-81.698,631.981-135.013,857.574-124.298c58.363,0,239.218,0,424.566,0v-125.416H-150.809h-202.383h-2034.369V24.897
		C-2202.214,24.897-2021.357,24.897-1962.993,24.897z"/>
	<path opacity="0.2" fill="#D8ECDB" d="M-1406.993,24.897c225.592-10.715,553.061,42.6,857.573,124.298
		c285.648,76.631,666.108,83.389,853.42,81.326c187.311,2.063,567.771-4.695,853.42-81.326
		c304.513-81.698,631.981-135.013,857.574-124.298c58.363,0,239.218,0,424.566,0v-125.416H405.191H202.809h-2034.369V24.897
		C-1646.214,24.897-1465.357,24.897-1406.993,24.897z"/>
</g>
<g id="BannerSizeLg" display="none">
	
		<rect x="-1920" display="inline" opacity="0.2" fill="#348564" stroke="#000000" stroke-miterlimit="10" width="1920" height="250"/>
	
		<rect x="-1920" y="880" display="inline" opacity="0.2" fill="#348564" stroke="#000000" stroke-miterlimit="10" width="1920" height="200"/>
</g>
<g id="WaveSm">
</g>
<g id="BannerSizeSm" display="none">
</g>
<g id="LgImage">
</g>
<g id="SmImage高斯模糊">
</g>
<g id="SmImage">
</g>
<g id="ref." display="none">
</g>
</svg>
